<?xml version="1.0" encoding="UTF-8"?>
<svg version="1.1" xmlns="http://www.w3.org/2000/svg" viewBox="0 0 256 133" preserveAspectRatio="xMidYMid meet">
<path d="M0 0 C7.8228503 2.00119426 11.53182374 7.42353726 15.8125 13.8125 C16.42254883 14.7087207 16.42254883 14.7087207 17.04492188 15.62304688 C18.03479703 17.07874564 19.01809735 18.53891174 20 20 C20.0810206 17.89646505 20.13919907 15.79204048 20.1875 13.6875 C20.22230469 12.51574219 20.25710937 11.34398437 20.29296875 10.13671875 C20.30551734 6.66723215 20.30551734 6.66723215 17 4 C19.97 3.01 22.94 2.02 26 1 C26.66 1.99 27.32 2.98 28 4 C28.825 3.505 29.65 3.01 30.5 2.5 C36.2564611 0.03294524 40.87170498 0.32957006 46.625 2.4375 C51.82136473 5.01316778 54.84774684 8.63567204 57 14 C58.02543409 20.1696951 57.71578155 25.79790583 54 31 C50.37262913 34.63753157 46.59079437 37.73744558 41.37890625 38.265625 C39.98478516 38.25789063 39.98478516 38.25789063 38.5625 38.25 C37.63566406 38.25515625 36.70882812 38.2603125 35.75390625 38.265625 C32.83945824 37.98451512 30.65109503 37.21247903 28 36 C27.9730499 38.93756119 27.95318526 41.87487555 27.9375 44.8125 C27.92493164 46.06256836 27.92493164 46.06256836 27.91210938 47.33789062 C27.90888672 48.14033203 27.90566406 48.94277344 27.90234375 49.76953125 C27.89710693 50.50792236 27.89187012 51.24631348 27.88647461 52.00708008 C27.92476787 54.21057409 27.92476787 54.21057409 29 57 C28 58 28 58 25.93359375 58.09765625 C25.10988281 58.08605469 24.28617188 58.07445312 23.4375 58.0625 C22.61121094 58.05347656 21.78492188 58.04445312 20.93359375 58.03515625 C20.29550781 58.02355469 19.65742187 58.01195312 19 58 C19.16008545 57.30326172 19.3201709 56.60652344 19.48510742 55.88867188 C20.45006066 50.47505086 20.26914926 44.98531356 20.3125 39.5 C20.34150391 38.27667969 20.37050781 37.05335937 20.40039062 35.79296875 C20.41295898 34.02373047 20.41295898 34.02373047 20.42578125 32.21875 C20.44036377 31.14560547 20.45494629 30.07246094 20.4699707 28.96679688 C19.89377098 25.32940516 18.48260143 23.65613475 16 21 C15.97298592 23.10409639 15.95359777 25.20829178 15.9375 27.3125 C15.92589844 28.48425781 15.91429688 29.65601563 15.90234375 30.86328125 C15.85100102 34.03059195 15.85100102 34.03059195 17 37 C14.36 37 11.72 37 9 37 C9 36.34 9 35.68 9 35 C8.175 35.495 7.35 35.99 6.5 36.5 C2.41567229 38.25042616 -0.62781896 38.78542174 -5 38 C-9.32839097 35.79497064 -12.19363633 33.56903752 -14 29 C-13.90132859 23.57307247 -12.54840972 20.09431891 -9 16 C-3.59160771 12.04771333 1.4475692 11.4539641 8 12 C7.34 10.02 6.68 8.04 6 6 C3.69 5.67 1.38 5.34 -1 5 C-0.67 3.35 -0.34 1.7 0 0 Z M29 6 C26.26040468 10.43130751 26.55817479 14.87265741 26.5 19.9375 C26.45875 20.83146484 26.4175 21.72542969 26.375 22.64648438 C26.2663889 27.45532068 26.2663889 27.45532068 28.1953125 31.72070312 C32.19168854 35.312318 35.48282019 35.75389174 40.59375 35.4921875 C44.59279327 34.67420138 46.26415187 33.00943294 49 30 C52.07371445 25.0926559 51.59210692 19.58481094 51 14 C49.7679349 10.19058792 47.79941727 7.68838709 44.75 5.0625 C39.54786504 3.05258422 33.88579439 3.1260033 29 6 Z M-1.75 15.3125 C-2.50796875 15.55613281 -3.2659375 15.79976562 -4.046875 16.05078125 C-6.33971477 16.96152906 -6.33971477 16.96152906 -8 20 C-8.42733494 25.29895331 -8.51322472 28.73394141 -5 33 C-2.28562321 35.13272462 -0.95173167 34.99745956 2.5625 34.8125 C6.02816124 33.99334371 6.92204212 33.71002449 9 31 C9.40988049 29.07435138 9.40988049 29.07435138 9.29296875 26.98828125 C9.28330078 26.23095703 9.27363281 25.47363281 9.26367188 24.69335938 C9.23853516 23.90767578 9.21339844 23.12199219 9.1875 22.3125 C9.17396484 21.51521484 9.16042969 20.71792969 9.14648438 19.89648438 C9.11117089 17.93070033 9.05736447 15.96526418 9 14 C5.12363753 13.88236472 1.92997181 14.0752681 -1.75 15.3125 Z " fill="#ffffff" transform="translate(62,43)"/>
<path d="M0 0 C2.31 0 4.62 0 7 0 C7.99407575 2.98222725 8.09111725 4.82680637 8.02734375 7.9296875 C8.01509766 8.89003906 8.00285156 9.85039063 7.99023438 10.83984375 C7.95521257 12.85554301 7.91618104 14.87117677 7.87304688 16.88671875 C7.85661133 18.33111328 7.85661133 18.33111328 7.83984375 19.8046875 C7.82300537 20.68108887 7.80616699 21.55749023 7.78881836 22.46044922 C8.02754782 25.33127452 8.7178531 27.42672247 10 30 C13.72765292 31.86382646 18.37142987 31.20879104 22.4375 30.6875 C23.2109375 30.3471875 23.2109375 30.3471875 24 30 C25.02941422 26.91175735 25.12907717 24.76294418 25.1328125 21.52734375 C25.13410156 20.46322266 25.13539063 19.39910156 25.13671875 18.30273438 C25.13091797 16.63694336 25.13091797 16.63694336 25.125 14.9375 C25.12886719 13.82310547 25.13273437 12.70871094 25.13671875 11.56054688 C25.13542969 10.49771484 25.13414062 9.43488281 25.1328125 8.33984375 C25.13168457 7.36394287 25.13055664 6.38804199 25.12939453 5.38256836 C25.15763793 2.98356611 25.15763793 2.98356611 24 1 C26.97 1 29.94 1 33 1 C33 10.9 33 20.8 33 31 C33.66 31.33 34.32 31.66 35 32 C35 32.66 35 33.32 35 34 C31.62902617 35.49821059 29.79557881 36 26 36 C25.67 34.68 25.34 33.36 25 32 C24.2575 32.66 23.515 33.32 22.75 34 C18.00669093 37.15843253 12.45335926 36.89361769 7 36 C3.2695471 33.36673913 1.80420471 31.39535309 1 27 C0.85321886 24.90352557 0.75294862 22.80358677 0.68359375 20.703125 C0.64169922 19.49785156 0.59980469 18.29257812 0.55664062 17.05078125 C0.49766602 15.16939453 0.49766602 15.16939453 0.4375 13.25 C0.39431641 11.98027344 0.35113281 10.71054687 0.30664062 9.40234375 C0.20060278 6.26833635 0.09853942 3.13425067 0 0 Z " fill="#ffffff" transform="translate(191,44)"/>
<path d="M0 0 C0.33 0.99 0.66 1.98 1 3 C1.4846875 2.71125 1.969375 2.4225 2.46875 2.125 C7.62273988 -0.72951747 11.11160981 -1.67571691 17 -1 C20.48867069 0.39546828 21.68911829 1.474722 23.60473633 4.71142578 C25.09235399 8.21767423 25.42151317 10.70355308 25.51171875 14.4921875 C25.54716797 15.69101562 25.58261719 16.88984375 25.61914062 18.125 C25.65297852 19.98125 25.65297852 19.98125 25.6875 21.875 C25.72166016 23.13570312 25.75582031 24.39640625 25.79101562 25.6953125 C25.87325167 28.79678616 25.94248468 31.89798569 26 35 C23.69 35 21.38 35 19 35 C18.97494385 34.23333008 18.9498877 33.46666016 18.92407227 32.67675781 C18.80798577 29.20100717 18.68531634 25.72551908 18.5625 22.25 C18.52318359 21.0434375 18.48386719 19.836875 18.44335938 18.59375 C18.40146484 17.43359375 18.35957031 16.2734375 18.31640625 15.078125 C18.27974854 14.00981445 18.24309082 12.94150391 18.20532227 11.84082031 C18.03013091 9.41688848 17.68801513 7.32113288 17 5 C15.46338666 4.72061576 13.92008982 4.47788935 12.375 4.25 C11.51648438 4.11078125 10.65796875 3.9715625 9.7734375 3.828125 C5.48588174 4.09383268 3.9684691 4.8244284 1 8 C0.23851537 12.59713998 0.43888409 17.10664668 0.625 21.75 C0.65207031 23.01972656 0.67914063 24.28945312 0.70703125 25.59765625 C0.7777641 28.73347906 0.87643508 31.86588663 1 35 C-1.64 35 -4.28 35 -7 35 C-6.98952637 34.1121582 -6.97905273 33.22431641 -6.96826172 32.30957031 C-6.93412244 29.00713493 -6.90907332 25.70488782 -6.89013672 22.40234375 C-6.88009573 20.97457922 -6.86646019 19.54683517 -6.84912109 18.11914062 C-6.82478848 16.06375059 -6.81349798 14.00863308 -6.8046875 11.953125 C-6.79421387 10.71723633 -6.78374023 9.48134766 -6.77294922 8.20800781 C-6.98701919 5.18340629 -7.40346841 3.53014349 -9 1 C-2.25 -1.125 -2.25 -1.125 0 0 Z " fill="#ffffff" transform="translate(21,45)"/>
<path d="M0 0 C4.05523038 2.85709413 7.51585617 6.46921234 9.75 10.9375 C10.66700695 18.37802478 10.26086764 24.07039494 5.57421875 30.08984375 C0.98977953 34.73318369 -3.40441435 36.14672968 -9.875 36.375 C-15.05765764 36.15309063 -18.85837043 35.32244904 -22.6484375 31.54296875 C-26.99059269 26.58588407 -28.7470927 22.81830291 -28.5546875 16.30859375 C-27.76737105 10.18165678 -25.01612625 6.23484904 -20.1875 2.5 C-14.01847556 -1.8455508 -7.12959748 -2.33082995 0 0 Z M-20.25 5.9375 C-23.24412031 10.28380368 -23.79909652 13.72108304 -23.25 18.9375 C-21.42060216 25.07136335 -18.30912736 28.30468084 -13.25 31.9375 C-10.03501861 33.5449907 -6.73701742 33.41064549 -3.25 32.9375 C0.79899476 30.83802124 3.09174728 29.17358194 4.75 24.9375 C5.42375822 19.75112859 5.40925549 15.30672294 3.125 10.5625 C-1.178644 5.80584084 -4.6364493 2.17142859 -11.2265625 1.7421875 C-14.87625396 2.09447432 -17.51769314 3.5376961 -20.25 5.9375 Z " fill="#ffffff" transform="translate(149.25,45.0625)"/>
<path d="M0 0 C2.97 0.33 5.94 0.66 9 1 C9 1.99 9 2.98 9 4 C8.34 4 7.68 4 7 4 C7 7.3 7 10.6 7 14 C10.3 14 13.6 14 17 14 C17 14.66 17 15.32 17 16 C14.59454362 17.20272819 13.05003047 17.10071472 10.375 17.0625 C9.14910156 17.04896484 9.14910156 17.04896484 7.8984375 17.03515625 C7.27195313 17.02355469 6.64546875 17.01195313 6 17 C6.33 17.99 6.66 18.98 7 20 C7.13906481 22.11339091 7.22521602 24.23043629 7.28125 26.34765625 C7.31863281 27.59224609 7.35601562 28.83683594 7.39453125 30.11914062 C7.46494815 32.75195033 7.53526034 35.38476285 7.60546875 38.01757812 C7.64285156 39.26087891 7.68023437 40.50417969 7.71875 41.78515625 C7.74904297 42.92863525 7.77933594 44.07211426 7.81054688 45.25024414 C7.82017552 47.96091543 7.82017552 47.96091543 9 50 C11.32156597 50.40729228 13.6568787 50.74438677 16 51 C15.505 53.475 15.505 53.475 15 56 C9.10926715 54.7377001 6.33503946 51.761472 3 47 C1.31996293 44.08579691 0.74036005 41.95373632 0.68115234 38.59863281 C0.66128265 37.7380426 0.64141296 36.87745239 0.62094116 35.99078369 C0.60938995 35.07085632 0.59783875 34.15092896 0.5859375 33.203125 C0.56657135 32.25435486 0.5472052 31.30558472 0.5272522 30.32806396 C0.46754341 27.30213367 0.42110567 24.27616516 0.375 21.25 C0.33681223 19.19659813 0.29776003 17.14321214 0.2578125 15.08984375 C0.16184892 10.06002504 0.07778554 5.03013135 0 0 Z " fill="#ffffff" transform="translate(228,33)"/>
<path d="M0 0 C0 1.98 0 3.96 0 6 C-2.49361571 4.79618552 -4.68143083 3.54571278 -7 2 C-11.97455239 1.5393933 -15.06753613 1.83218188 -19 5 C-22.34979911 8.81184037 -22.51524284 12.54781741 -22.34765625 17.4296875 C-21.61612962 22.83805293 -19.68902842 26.6405381 -15.4375 30.0625 C-10.49373235 31.41080027 -6.0202776 30.7414289 -1 30 C-1 30.99 -1 31.98 -1 33 C-6.66408738 35.32372815 -12.37886858 36.27619736 -18.25 34.20703125 C-22.73464512 32.05539085 -26.08366216 30.02558892 -28.1875 25.375 C-29.82500533 18.57305477 -29.75621779 12.97392697 -26.26953125 6.7890625 C-20.35031376 -1.55248092 -9.19851262 -5.35340688 0 0 Z " fill="#ffffff" transform="translate(190,46)"/>
</svg>
